<?xml version="1.0" standalone="no"?>
<!DOCTYPE svg PUBLIC "-//W3C//DTD SVG 20010904//EN"
 "http://www.w3.org/TR/2001/REC-SVG-20010904/DTD/svg10.dtd">
<svg version="1.0" xmlns="http://www.w3.org/2000/svg"
 width="512.000000pt" height="512.000000pt" viewBox="0 0 512.000000 512.000000"
 preserveAspectRatio="xMidYMid meet">
<metadata>
Created by potrace 1.14, written by Peter Selinger 2001-2017
</metadata>
<g transform="translate(0.000000,512.000000) scale(0.100000,-0.100000)"
fill="#000000" stroke="none">
<path d="M1280 2865 l0 -1775 365 0 365 0 0 625 0 625 343 0 c379 0 562 11
712 41 615 125 962 556 931 1154 -15 290 -113 525 -298 721 -173 181 -391 296
-675 356 -107 22 -119 23 -925 26 l-818 3 0 -1776z m1564 1165 c196 -50 334
-180 391 -370 9 -30 19 -102 22 -160 16 -290 -125 -484 -394 -544 -59 -13
-141 -16 -462 -16 l-391 0 0 555 0 555 378 0 c344 0 386 -2 456 -20z"/>
<path d="M0 300 l0 -300 2560 0 2560 0 0 300 0 300 -2560 0 -2560 0 0 -300z"/>
</g>
</svg>
